<?xml version="1.0" encoding="utf-8" ?>
<svg xmlns="http://www.w3.org/2000/svg" xmlns:xlink="http://www.w3.org/1999/xlink" width="1024" height="1024">
	<path fill="#F45E6C" transform="scale(2 2)" d="M250.476 68.3044C262.01 65.4334 270.8 78.7439 264.101 88.5984C262.267 91.2971 259.684 93.5889 257.507 96.0251C201.384 158.833 215.604 254.154 284.577 301.714C321.058 326.87 366.782 332.011 407.436 315.051C411.93 313.175 416.59 309.864 421.391 309.099C431.033 307.563 441.512 318.784 437.159 326.476C434.436 327.121 429.689 331.024 427.126 332.606C415.942 339.506 403.698 343.716 391.276 347.84C387.563 347.849 376.482 351.262 370.454 351.857C300.414 358.764 229.957 311.688 205.593 246.478C189.823 204.27 190.196 154.758 211.591 114.493C213.7 110.523 216.09 106.68 217.962 102.588C229.821 90.7505 232.212 79.286 250.476 68.3044Z"/>
	<path fill="#F37664" transform="scale(2 2)" d="M437.159 326.476C418.635 372.653 379.769 410.933 334.033 430.184C264.222 459.569 182.038 442.364 128.652 388.516C55.2013 314.429 54.8092 194.461 129.754 121.206C159.341 92.2855 207.922 67.7864 250.476 68.3044C232.212 79.286 229.821 90.7505 217.962 102.588C209.371 105.382 200.879 108.396 192.733 112.328C82.3367 165.601 71.6519 320.26 172.387 387.757C218.33 418.542 279.822 424.189 329.717 399.422C351.258 388.73 378.242 368.697 391.276 347.84C403.698 343.716 415.942 339.506 427.126 332.606C429.689 331.024 434.436 327.121 437.159 326.476Z"/>
</svg>
