<?xml version="1.0" encoding="utf-8" ?>
<svg xmlns="http://www.w3.org/2000/svg" xmlns:xlink="http://www.w3.org/1999/xlink" width="1024" height="1024">
	<path fill="#868D96" transform="scale(2 2)" d="M257.062 143.624C246.223 143.884 248.126 133.005 248.122 125.655L248.12 73.8288C248.123 63.9826 244.154 49.4488 255.933 47.349C266.33 47.2424 264.317 59.0892 264.32 65.9374L264.331 120.418C264.339 128.49 267.406 141.923 257.062 143.624Z"/>
	<path fill="#868D96" transform="scale(2 2)" d="M172.207 178.245C163.049 178.367 151.731 163.046 145.107 156.557C140.747 152.287 109.389 121.881 108.068 118.591C106.03 113.517 109.373 108.858 114.164 107.307C122.684 106.956 134.74 123.5 141.16 129.747L165.918 154.059C171.423 159.51 188.041 172.427 172.207 178.245Z"/>
	<path fill="#868D96" transform="scale(2 2)" d="M343.041 178.245C337.049 179.403 330.796 172.961 333.779 167.166C335.565 163.697 344.92 155.245 348.033 152.09L382.632 117.369C386.226 113.811 389.417 108.831 394.433 107.307C400.593 106.975 406.576 111.933 403.589 118.553C401.75 122.629 396.627 126.28 393.532 129.396L355.43 167.26C351.812 170.857 347.919 176.322 343.041 178.245Z"/>
	<path fill="#868D96" transform="scale(2 2)" d="M303.28 153.872C289.422 154.438 296.206 135.274 300.485 130.124C302.082 128.202 303.959 127.831 306.312 127.635C320.21 126.123 314.312 152.562 303.28 153.872Z"/>
	<path fill="#868D96" transform="scale(2 2)" d="M211.482 153.872C209.207 153.994 206.759 153.962 204.782 152.669C200.867 150.109 191.167 130.383 203.7 127.635C210.265 127.043 212.137 131.292 214.52 136.621C217.604 143.518 220.671 150.664 211.482 153.872Z"/>
	<path fill="#868D96" transform="scale(2 2)" d="M261.699 344.261C256.321 344.32 251.03 344.341 245.679 343.73C204.845 339.071 171.348 303.981 168.356 263.01C164.734 213.404 201.492 170.911 251.07 167.551C325.839 164.014 373.088 252.102 325.91 309.836C308.541 331.091 288.476 341.538 261.699 344.261ZM251.07 183.99C210.244 188.653 180.128 221.849 185.028 263.866C189.647 303.47 222.568 328.988 261.699 327.744C302.186 323.587 331.973 288.632 327.503 247.75C323.464 210.81 288.365 180.775 251.07 183.99Z"/>
	<path fill="#EDF2F4" transform="scale(2 2)" d="M261.699 327.744C222.568 328.988 189.647 303.47 185.028 263.866C180.128 221.849 210.244 188.653 251.07 183.99C288.365 180.775 323.464 210.81 327.503 247.75C331.973 288.632 302.186 323.587 261.699 327.744Z"/>
	<path fill="#868D96" transform="scale(2 2)" d="M148.349 218.24C143.522 218.713 128.764 211.885 127.275 206.261C125.986 201.391 129.088 197.819 133.671 196.803C137.963 195.738 144.554 200.028 148.52 201.817C156.975 205.63 157.355 215.533 148.349 218.24Z"/>
	<path fill="#868D96" transform="scale(2 2)" d="M368.045 218.24C361.88 217.967 355.463 212.373 359.19 206.096C361.422 202.337 371.371 197.894 375.56 196.803C380.874 196.179 386.241 202.014 384.661 207.277C383.106 212.459 372.934 215.713 368.045 218.24Z"/>
	<path fill="#868D96" transform="scale(2 2)" d="M137.7 263.887L64.8163 263.902C61.375 263.902 57.8452 264.056 54.4178 263.765C43.9186 262.875 44.5392 249.051 54.8807 247.819L128.987 247.776C134.602 247.748 144.295 246.48 145.423 254.206C146.143 259.136 142.609 263.431 137.7 263.887Z"/>
	<path fill="#868D96" transform="scale(2 2)" d="M457.178 263.887C452.311 264.143 447.274 263.893 442.393 263.892L387.116 263.882C382.142 263.883 373.862 265.3 369.558 262.193C363.289 257.666 366.133 248.721 375.56 247.819C392.593 247.637 409.646 247.828 426.68 247.813L445.567 247.798C449.543 247.796 457.776 246.696 461.202 249.182C467.703 253.899 464.618 262.94 457.178 263.887Z"/>
	<path fill="#868D96" transform="scale(2 2)" d="M136.142 314.248C127.573 315.329 117.39 299.441 146.644 293.543C153.002 292.102 157.732 300.319 154.406 305.561C151.807 309.657 140.866 313.073 136.142 314.248Z"/>
	<path fill="#868D96" transform="scale(2 2)" d="M377.364 314.248C372.668 314.472 359.214 309.716 357.518 304.331C355.977 299.436 359.252 294.893 363.912 293.543C368.976 293.223 375.424 296.49 379.598 299.014C386.551 303.218 384.901 312.366 377.364 314.248Z"/>
	<path fill="#868D96" transform="scale(2 2)" d="M397.313 404.168C390.012 402.828 386.487 398.014 381.383 393.038C375.716 387.512 334.037 346.89 333.196 342.647C332.2 337.62 334.682 333.714 339.736 332.798C347.247 331.729 351.892 339.851 356.532 344.596L376.296 364.582C380.128 368.477 403.031 389.392 403.688 393.001C404.595 397.981 402.184 402.424 397.313 404.168Z"/>
	<path fill="#868D96" transform="scale(2 2)" d="M117.37 404.168C110.105 404.965 104.051 397.69 109.498 391.382C116.741 382.994 125.097 375.415 132.831 367.474L155.544 344.559C159.381 340.741 163.292 335.199 168.241 332.798C174.573 332.275 180.736 336.992 177.667 343.944C176.025 347.664 171.518 350.988 168.738 353.847L132.605 390.562C128.412 394.868 123.03 402.025 117.37 404.168Z"/>
	<path fill="#868D96" transform="scale(2 2)" d="M307.675 384.02C297.725 383.781 286.521 360.456 301.703 357.344C310.508 356.761 323.337 381.191 307.675 384.02Z"/>
	<path fill="#868D96" transform="scale(2 2)" d="M206.646 384.02C191.867 386.919 197.743 361.168 208.255 359.057C223.41 357.503 216.363 381.102 206.646 384.02Z"/>
	<path fill="#868D96" transform="scale(2 2)" d="M257.062 464.207C246.748 465.176 248.109 454.652 248.114 448.467L248.116 393.84C248.107 383.649 244.251 368.598 255.933 366.292C266.806 365.227 264.321 381.088 264.323 387.238L264.337 443.577C264.34 451.218 266.966 462.011 257.062 464.207Z"/>
</svg>
