<?xml version="1.0" encoding="iso-8859-1"?>
<!-- Uploaded to: SVG Repo, www.svgrepo.com, Generator: SVG Repo Mixer Tools -->
<svg height="800px" width="800px" version="1.1" id="Layer_1" xmlns="http://www.w3.org/2000/svg" xmlns:xlink="http://www.w3.org/1999/xlink" 
	 viewBox="0 0 512 512" xml:space="preserve">
<path style="fill:#77757F;" d="M372.364,116.364H139.636C62.641,116.364,0,179.005,0,256s62.641,139.636,139.636,139.636h232.727
	C449.359,395.636,512,332.995,512,256S449.359,116.364,372.364,116.364z"/>
<circle style="fill:#FFFFFF;" cx="139.636" cy="256" r="116.364"/>
<path style="fill:#A9A8AE;" d="M139.636,395.636C62.641,395.636,0,332.995,0,256s62.641-139.636,139.636-139.636
	S279.273,179.005,279.273,256S216.632,395.636,139.636,395.636z M139.636,162.909c-51.33,0-93.091,41.761-93.091,93.091
	s41.761,93.091,93.091,93.091S232.727,307.33,232.727,256S190.967,162.909,139.636,162.909z"/>
</svg>